<svg xmlns="http://www.w3.org/2000/svg" viewBox="0 0 240 240">
  <defs>
    <linearGradient id="bp" x1="50%" y1="0%" x2="50%" y2="100%">
      <stop offset="0%"   stop-color="#5b6dff"/>
      <stop offset="50%"  stop-color="#7a5cff"/>
      <stop offset="100%" stop-color="#a855f7"/>
    </linearGradient>
    <radialGradient id="glow" cx="50%" cy="50%" r="55%">
      <stop offset="0%"   stop-color="#7a5cff" stop-opacity="0.45"/>
      <stop offset="100%" stop-color="#7a5cff" stop-opacity="0"/>
    </radialGradient>
  </defs>
  <rect width="240" height="240" rx="56" fill="#0c0c14"/>
  <circle cx="115" cy="128" r="92" fill="url(#glow)"/>
  <path d="M 178 60 C 118 32, 48 78, 48 132 C 48 188, 118 222, 184 196"
        stroke="url(#bp)" stroke-width="32" stroke-linecap="round" fill="none"/>
  <path d="M 178 60 C 118 32, 48 78, 48 132 C 48 188, 118 222, 184 196"
        stroke="#ffffff" stroke-opacity="0.16" stroke-width="3" stroke-linecap="round" fill="none"/>
  <circle cx="184" cy="196" r="20" fill="#0c0c14" stroke="url(#bp)" stroke-width="3"/>
  <text x="184" y="204" text-anchor="middle" font-family="Inter, system-ui, sans-serif" font-weight="900" font-size="24" fill="#ffffff">¤</text>
  <g transform="translate(140 40) rotate(-18)">
    <ellipse cx="0" cy="7" rx="46" ry="7" fill="#000"/>
    <polygon points="-46,0 0,-14 46,0 0,14" fill="#000"/>
    <polygon points="-46,0 0,-14 46,0 0,14" fill="url(#bp)" opacity="0.55"/>
    <circle cx="0" cy="0" r="3.5" fill="#5b6dff"/>
    <path d="M 0 0 Q 14 24 12 44" stroke="#5b6dff" stroke-width="2.5" fill="none" stroke-linecap="round"/>
    <circle cx="12" cy="44" r="4" fill="#a855f7"/>
  </g>
</svg>
